<svg xmlns="http://www.w3.org/2000/svg" xmlns:xlink="http://www.w3.org/1999/xlink" contentStyleType="text/css" height="602px" preserveAspectRatio="none" style="width:1727px;height:602px;background:#FFFFFF;" version="1.1" viewBox="0 0 1727 602" width="1727px" zoomAndPan="magnify"><defs/><g><rect fill="#ADD8E6" height="590.2578" rx="3.5" ry="3.5" style="stroke:#181818;stroke-width:0.5;" width="326.3047" x="526.7222" y="6"/><text fill="#000000" font-family="sans-serif" font-size="13" font-weight="bold" lengthAdjust="spacing" textLength="101.2769" x="639.2361" y="18.0669">Catalog Layer</text><rect fill="#90EE90" height="590.2578" rx="3.5" ry="3.5" style="stroke:#181818;stroke-width:0.5;" width="662.9341" x="855.0269" y="6"/><text fill="#000000" font-family="sans-serif" font-size="13" font-weight="bold" lengthAdjust="spacing" textLength="174.8145" x="1099.0867" y="18.0669">Iceberg Metadata Layer</text><rect fill="#FFFFE0" height="590.2578" rx="3.5" ry="3.5" style="stroke:#181818;stroke-width:0.5;" width="201.6309" x="1519.9609" y="6"/><text fill="#000000" font-family="sans-serif" font-size="13" font-weight="bold" lengthAdjust="spacing" textLength="79.8345" x="1580.8591" y="18.0669">Data Layer</text><rect fill="none" height="343.3984" rx="3.5" ry="3.5" style="stroke:#696969;stroke-width:1;" width="1354.4424" x="10" y="156.5625"/><line style="stroke:#696969;stroke-width:0.5;stroke-dasharray:5.0,5.0;" x1="38" x2="38" y1="81.2969" y2="516.9609"/><line style="stroke:#696969;stroke-width:0.5;stroke-dasharray:5.0,5.0;" x1="378.7378" x2="378.7378" y1="81.2969" y2="516.9609"/><line style="stroke:#696969;stroke-width:0.5;stroke-dasharray:5.0,5.0;" x1="689.7222" x2="689.7222" y1="81.2969" y2="516.9609"/><line style="stroke:#696969;stroke-width:0.5;stroke-dasharray:5.0,5.0;" x1="969.0269" x2="969.0269" y1="81.2969" y2="516.9609"/><line style="stroke:#696969;stroke-width:0.5;stroke-dasharray:5.0,5.0;" x1="1212.2373" x2="1212.2373" y1="81.2969" y2="516.9609"/><line style="stroke:#696969;stroke-width:0.5;stroke-dasharray:5.0,5.0;" x1="1415.4658" x2="1415.4658" y1="81.2969" y2="516.9609"/><line style="stroke:#696969;stroke-width:0.5;stroke-dasharray:5.0,5.0;" x1="1619.9609" x2="1619.9609" y1="81.2969" y2="516.9609"/><text fill="#454645" font-family="sans-serif" font-size="14" lengthAdjust="spacing" textLength="31.9102" x="20" y="77.9951">User</text><ellipse cx="38.9551" cy="13.5" fill="#454645" rx="8" ry="8" style="stroke:#454645;stroke-width:0.5;"/><path d="M38.9551,21.5 L38.9551,48.5 M25.9551,29.5 L51.9551,29.5 M38.9551,48.5 L25.9551,63.5 M38.9551,48.5 L51.9551,63.5 " fill="none" style="stroke:#454645;stroke-width:0.5;"/><text fill="#454645" font-family="sans-serif" font-size="14" lengthAdjust="spacing" textLength="31.9102" x="20" y="528.9561">User</text><ellipse cx="38.9551" cy="540.7578" fill="#454645" rx="8" ry="8" style="stroke:#454645;stroke-width:0.5;"/><path d="M38.9551,548.7578 L38.9551,575.7578 M25.9551,556.7578 L51.9551,556.7578 M38.9551,575.7578 L25.9551,590.7578 M38.9551,575.7578 L51.9551,590.7578 " fill="none" style="stroke:#454645;stroke-width:0.5;"/><rect fill="#FF6347" height="30.2969" rx="3.5" ry="3.5" style="stroke:#454645;stroke-width:1.5;" width="149.7275" x="304.7378" y="50"/><text fill="#FFFFFF" font-family="sans-serif" font-size="14" lengthAdjust="spacing" textLength="135.7275" x="311.7378" y="69.9951">SQL Engine (Spark)</text><rect fill="#FF6347" height="30.2969" rx="3.5" ry="3.5" style="stroke:#454645;stroke-width:1.5;" width="149.7275" x="304.7378" y="515.9609"/><text fill="#FFFFFF" font-family="sans-serif" font-size="14" lengthAdjust="spacing" textLength="135.7275" x="311.7378" y="535.9561">SQL Engine (Spark)</text><rect fill="#FF6347" height="30.2969" rx="3.5" ry="3.5" style="stroke:#454645;stroke-width:1.5;" width="278.3047" x="550.7222" y="50"/><text fill="#FFFFFF" font-family="sans-serif" font-size="14" lengthAdjust="spacing" textLength="264.3047" x="557.7222" y="69.9951">Catalog (Hive Metastore via MariaDB)</text><rect fill="#FF6347" height="30.2969" rx="3.5" ry="3.5" style="stroke:#454645;stroke-width:1.5;" width="278.3047" x="550.7222" y="515.9609"/><text fill="#FFFFFF" font-family="sans-serif" font-size="14" lengthAdjust="spacing" textLength="264.3047" x="557.7222" y="535.9561">Catalog (Hive Metastore via MariaDB)</text><rect fill="#FF6347" height="30.2969" rx="3.5" ry="3.5" style="stroke:#454645;stroke-width:1.5;" width="181.3232" x="879.0269" y="50"/><text fill="#FFFFFF" font-family="sans-serif" font-size="14" lengthAdjust="spacing" textLength="167.3232" x="886.0269" y="69.9951">Iceberg Metadata (json)</text><rect fill="#FF6347" height="30.2969" rx="3.5" ry="3.5" style="stroke:#454645;stroke-width:1.5;" width="181.3232" x="879.0269" y="515.9609"/><text fill="#FFFFFF" font-family="sans-serif" font-size="14" lengthAdjust="spacing" textLength="167.3232" x="886.0269" y="535.9561">Iceberg Metadata (json)</text><rect fill="#FF6347" height="30.2969" rx="3.5" ry="3.5" style="stroke:#454645;stroke-width:1.5;" width="149.2285" x="1138.2373" y="50"/><text fill="#FFFFFF" font-family="sans-serif" font-size="14" lengthAdjust="spacing" textLength="135.2285" x="1145.2373" y="69.9951">Manifest List (avro)</text><rect fill="#FF6347" height="30.2969" rx="3.5" ry="3.5" style="stroke:#454645;stroke-width:1.5;" width="149.2285" x="1138.2373" y="515.9609"/><text fill="#FFFFFF" font-family="sans-serif" font-size="14" lengthAdjust="spacing" textLength="135.2285" x="1145.2373" y="535.9561">Manifest List (avro)</text><rect fill="#FF6347" height="30.2969" rx="3.5" ry="3.5" style="stroke:#454645;stroke-width:1.5;" width="156.4951" x="1337.4658" y="50"/><text fill="#FFFFFF" font-family="sans-serif" font-size="14" lengthAdjust="spacing" textLength="142.4951" x="1344.4658" y="69.9951">Manifest Files (avro)</text><rect fill="#FF6347" height="30.2969" rx="3.5" ry="3.5" style="stroke:#454645;stroke-width:1.5;" width="156.4951" x="1337.4658" y="515.9609"/><text fill="#FFFFFF" font-family="sans-serif" font-size="14" lengthAdjust="spacing" textLength="142.4951" x="1344.4658" y="535.9561">Manifest Files (avro)</text><rect fill="#FF6347" height="30.2969" rx="3.5" ry="3.5" style="stroke:#454645;stroke-width:1.5;" width="153.6309" x="1543.9609" y="50"/><text fill="#FFFFFF" font-family="sans-serif" font-size="14" lengthAdjust="spacing" textLength="139.6309" x="1550.9609" y="69.9951">Data Files (Parquet)</text><rect fill="#FF6347" height="30.2969" rx="3.5" ry="3.5" style="stroke:#454645;stroke-width:1.5;" width="153.6309" x="1543.9609" y="515.9609"/><text fill="#FFFFFF" font-family="sans-serif" font-size="14" lengthAdjust="spacing" textLength="139.6309" x="1550.9609" y="535.9561">Data Files (Parquet)</text><polygon fill="#454645" points="367.6016,108.4297,377.6016,112.4297,367.6016,116.4297,371.6016,112.4297" style="stroke:#454645;stroke-width:1;"/><line style="stroke:#454645;stroke-width:1;" x1="38.9551" x2="373.6016" y1="112.4297" y2="112.4297"/><text fill="#000000" font-family="sans-serif" font-size="13" lengthAdjust="spacing" textLength="316.6465" x="45.9551" y="107.3638">Submit CREATE TABLE Query for 'new_york_taxi'</text><polygon fill="#454645" points="677.8745,137.5625,687.8745,141.5625,677.8745,145.5625,681.8745,141.5625" style="stroke:#454645;stroke-width:1;"/><line style="stroke:#454645;stroke-width:1;" x1="379.6016" x2="683.8745" y1="141.5625" y2="141.5625"/><text fill="#000000" font-family="sans-serif" font-size="13" lengthAdjust="spacing" textLength="235.4854" x="386.6016" y="136.4966">Check if 'new_york_taxi' table exists</text><path d="M13.5,156.5625 L74.4429,156.5625 L74.4429,163.6953 L64.4429,173.6953 L10,173.6953 L10,160.0625 A3.5,3.5 0 0 1 13.5,156.5625 " fill="#EEEEEE" style="stroke:#696969;stroke-width:1.5;"/><rect fill="none" height="343.3984" rx="3.5" ry="3.5" style="stroke:#696969;stroke-width:1;" width="1354.4424" x="10" y="156.5625"/><text fill="#454645" font-family="sans-serif" font-size="13" font-weight="bold" lengthAdjust="spacing" textLength="19.4429" x="25" y="169.6294">alt</text><text fill="#696969" font-family="sans-serif" font-size="11" font-weight="bold" lengthAdjust="spacing" textLength="135.792" x="89.4429" y="168.7729">[Table does not exist]</text><polygon fill="#454645" points="390.6016,190.8281,380.6016,194.8281,390.6016,198.8281,386.6016,194.8281" style="stroke:#454645;stroke-width:1;"/><line style="stroke:#454645;stroke-width:1;stroke-dasharray:2.0,2.0;" x1="384.6016" x2="688.8745" y1="194.8281" y2="194.8281"/><text fill="#000000" font-family="sans-serif" font-size="13" lengthAdjust="spacing" textLength="131.606" x="396.6016" y="189.7622">Table does not exist</text><polygon fill="#454645" points="957.6885,219.9609,967.6885,223.9609,957.6885,227.9609,961.6885,223.9609" style="stroke:#454645;stroke-width:1;"/><line style="stroke:#454645;stroke-width:1;" x1="379.6016" x2="963.6885" y1="223.9609" y2="223.9609"/><text fill="#000000" font-family="sans-serif" font-size="13" lengthAdjust="spacing" textLength="365.7773" x="386.6016" y="218.895">Create Metadata.json (00000-8bac...c16.metadata.json)</text><line style="stroke:#454645;stroke-width:1;" x1="969.6885" x2="1011.6885" y1="268.2266" y2="268.2266"/><line style="stroke:#454645;stroke-width:1;" x1="1011.6885" x2="1011.6885" y1="268.2266" y2="281.2266"/><line style="stroke:#454645;stroke-width:1;" x1="970.6885" x2="1011.6885" y1="281.2266" y2="281.2266"/><polygon fill="#454645" points="980.6885,277.2266,970.6885,281.2266,980.6885,285.2266,976.6885,281.2266" style="stroke:#454645;stroke-width:1;"/><text fill="#000000" font-family="sans-serif" font-size="13" lengthAdjust="spacing" textLength="117.5332" x="976.6885" y="248.0278">Store Metadata at</text><text fill="#000000" font-family="sans-serif" font-size="13" lengthAdjust="spacing" textLength="225.0308" x="980.8208" y="263.1606">"s3a://.../new_york_taxi/metadata"</text><path d="M974,297.7266 L974,330.7266 A3.5,3.5 0 0 0 977.5,334.2266 L1350.5,334.2266 A3.5,3.5 0 0 0 1354,330.7266 L1354,304.2266 L1344,294.2266 L977.5,294.2266 A3.5,3.5 0 0 0 974,297.7266 " fill="#7FFFD4" style="stroke:#454645;stroke-width:1.5;"/><path d="M1344,294.2266 L1344,302.4766 A1.75,1.75 0 0 0 1345.75,304.2266 L1354,304.2266 L1344,294.2266 " fill="#7FFFD4" style="stroke:#454645;stroke-width:1.5;"/><text fill="#454645" font-family="sans-serif" font-size="13" lengthAdjust="spacing" textLength="301.0566" x="980" y="311.2935">Generated: "00000-8bac...c16.metadata.json"</text><text fill="#454645" font-family="sans-serif" font-size="13" lengthAdjust="spacing" textLength="359.4424" x="980" y="326.4263">Location: "s3a://lakehouse/.../new_york_taxi/metadata"</text><polygon fill="#454645" points="677.8745,356.625,687.8745,360.625,677.8745,364.625,681.8745,360.625" style="stroke:#454645;stroke-width:1;"/><line style="stroke:#454645;stroke-width:1;" x1="379.6016" x2="683.8745" y1="360.625" y2="360.625"/><text fill="#000000" font-family="sans-serif" font-size="13" lengthAdjust="spacing" textLength="286.2729" x="386.6016" y="355.5591">Register Table 'hms.data_db.new_york_taxi'</text><polygon fill="#454645" points="390.6016,385.7578,380.6016,389.7578,390.6016,393.7578,386.6016,389.7578" style="stroke:#454645;stroke-width:1;"/><line style="stroke:#454645;stroke-width:1;stroke-dasharray:2.0,2.0;" x1="384.6016" x2="688.8745" y1="389.7578" y2="389.7578"/><text fill="#000000" font-family="sans-serif" font-size="13" lengthAdjust="spacing" textLength="209.5171" x="396.6016" y="384.6919">Acknowledge Table Registration</text><polygon fill="#454645" points="49.9551,414.8906,39.9551,418.8906,49.9551,422.8906,45.9551,418.8906" style="stroke:#454645;stroke-width:1;"/><line style="stroke:#454645;stroke-width:1;" x1="43.9551" x2="378.6016" y1="418.8906" y2="418.8906"/><text fill="#000000" font-family="sans-serif" font-size="13" lengthAdjust="spacing" textLength="276.4595" x="55.9551" y="413.8247">Table 'new_york_taxi' created successfully</text><line style="stroke:#696969;stroke-width:1;stroke-dasharray:2.0,2.0;" x1="10" x2="1364.4424" y1="427.8906" y2="427.8906"/><text fill="#696969" font-family="sans-serif" font-size="11" font-weight="bold" lengthAdjust="spacing" textLength="84.5947" x="15" y="438.1011">[Table exists]</text><polygon fill="#454645" points="390.6016,458.8281,380.6016,462.8281,390.6016,466.8281,386.6016,462.8281" style="stroke:#454645;stroke-width:1;"/><line style="stroke:#454645;stroke-width:1;stroke-dasharray:2.0,2.0;" x1="384.6016" x2="688.8745" y1="462.8281" y2="462.8281"/><text fill="#000000" font-family="sans-serif" font-size="13" lengthAdjust="spacing" textLength="130.8125" x="396.6016" y="457.7622">Table already exists</text><polygon fill="#454645" points="49.9551,487.9609,39.9551,491.9609,49.9551,495.9609,45.9551,491.9609" style="stroke:#454645;stroke-width:1;"/><line style="stroke:#454645;stroke-width:1;" x1="43.9551" x2="378.6016" y1="491.9609" y2="491.9609"/><text fill="#000000" font-family="sans-serif" font-size="13" lengthAdjust="spacing" textLength="275.5645" x="55.9551" y="486.895">Error: Table 'new_york_taxi' already exists</text><!--SRC=[XLJ9Zjf04BtxAohE0UQ0OH8bYZX40eOi4YFD3EGM2PNjmkwuwIRTRPQ_JtbZCJEa3pxKyjwhUYM_Socj2ROYDAYSPpEXDcXm3GkzUKIJ20MV1cVX9pHEH6B3nKyOnq8byE4yFzRx9juAZxM9oInI4MMAh8NxotHDDl0yZ9msyCkIyJOdDl3dppEOAYuYwCuvaztvWBOEULwez-1FqA7K2SpmGCQ7zr8agGjbJXxmku1hIhi_n9RWaHnQvYrMWS1Y13wCAuAwq2CL0vFKJ3yZ2iaaPMFC5PUKYI5IrvnNJTq_LgkAfebTTpsY4Yko3cQ2FrtS6bstr8aYVgFjcv1aN-ih4wsv7gvcEP2KUdUDNrRMs7mMVtDo5NoHQ44NRaBlQ-FV4EPvk1OE9Y_JqM8AYz5uDeNddCm1Lcn-Hz5kUT0cMphSYuvNjp50uzeG9Yb56OXLknWSXfA0zhmKozSa7IpAIAnPgTAkIfNpD6YzSsclLfVb9nb70rc78NHqZ0I5ez0T5A_t9SGe28Be_dEmFi_VbN17a4l0UNc6nm2wtmfy-n67_JvZzI-cxJUmVgMG1HEOmZNGgykJAjvtKcHORJm4_xP2_zWpqn4weTMm4I4nerJdbcxAALeB-mj5xUsTJ7oXXBVBjr4jlPEkRL3qB-CmQDt0ctwD-8UYTvBYX6gO2jMKiblKvI4s7hSl9ogjZC7cKSI_g5KkvS4ZQHlS-gR-Spae6IO-d5TVyK-DqUOj6Iq0tk8_]--></g></svg>